<?xml version="1.0" encoding="utf-8"?>
<!-- Generator: Adobe Illustrator 19.2.1, SVG Export Plug-In . SVG Version: 6.00 Build 0)  -->
<svg version="1.1" id="Shape_61_copy_2_1_" xmlns="http://www.w3.org/2000/svg" xmlns:xlink="http://www.w3.org/1999/xlink" x="0px"
	 y="0px" viewBox="0 0 98 19" style="enable-background:new 0 0 98 19;" xml:space="preserve">
<style type="text/css">
	.st0{fill:#F5B11E;}
	.st1{fill:#AB570F;}
</style>
<g id="Shape_61_copy_2">
	<g>
		<path class="st0" d="M44.8,11.8l-3.7-4l5.3-1L49,2l2.6,4.8l5.3,1l-3.7,4l0.7,5.4L49,14.9l-4.9,2.3L44.8,11.8z M8.9,14.9L4,17.2
			l0.7-5.4L1,7.8l5.3-1L8.9,2l2.6,4.8l5.3,1l-3.7,4l0.7,5.4L8.9,14.9z M84.9,11.8l-3.7-4l5.3-1L89.1,2l2.6,4.8l5.3,1l-3.7,4l0.7,5.4
			l-4.9-2.3l-4.9,2.3L84.9,11.8z M24.7,11.8l-3.7-4l5.3-1L29,2l2.6,4.8l5.3,1l-3.7,4l0.7,5.4L29,14.9l-4.9,2.3L24.7,11.8z M69,14.9
			l-4.9,2.3l0.7-5.4l-3.7-4l5.3-1L69,2l2.6,4.8l5.3,1l-3.7,4l0.7,5.4L69,14.9z"/>
	</g>
	<g>
		<path class="st1" d="M89.1,3.1l2.1,3.7l0.2,0.4l0.5,0.1L96,8.1l-2.9,3.1l-0.3,0.3l0.1,0.5l0.5,4.3l-3.9-1.8l-0.4-0.2l-0.4,0.2
			l-3.9,1.8l0.5-4.3l0.1-0.5l-0.3-0.3l-2.9-3.1l4.2-0.8l0.5-0.1L87,6.8L89.1,3.1 M49,3.1l2.1,3.7l0.2,0.4l0.5,0.1l4.2,0.8L53,11.3
			l-0.3,0.3l0.1,0.5l0.5,4.3l-3.9-1.8L49,14.3l-0.4,0.2l-3.9,1.8l0.5-4.3l0.1-0.5L45,11.3l-2.9-3.1l4.2-0.8l0.5-0.1l0.2-0.4L49,3.1
			 M8.9,3.1L11,6.8l0.2,0.4l0.5,0.1l4.2,0.8l-2.9,3.1l-0.3,0.3l0.1,0.5l0.5,4.3l-3.9-1.8l-0.4-0.2l-0.4,0.2l-3.9,1.8l0.5-4.3
			l0.1-0.5l-0.3-0.3L2,8.1l4.2-0.8l0.5-0.1l0.2-0.4L8.9,3.1 M29,3.1L31,6.8l0.2,0.4l0.5,0.1l4.2,0.8L33,11.3l-0.3,0.3l0.1,0.5
			l0.5,4.3l-3.9-1.8L29,14.3l-0.4,0.2l-3.9,1.8l0.5-4.3l0.1-0.5l-0.3-0.3L22,8.1l4.2-0.8l0.5-0.1l0.2-0.4L29,3.1 M69,3.1l2.1,3.7
			l0.2,0.4l0.5,0.1L76,8.1l-2.9,3.1l-0.3,0.3l0.1,0.5l0.5,4.3l-3.9-1.8L69,14.3l-0.4,0.2l-3.9,1.8l0.5-4.3l0.1-0.5L65,11.3l-2.9-3.1
			l4.2-0.8l0.5-0.1L67,6.8L69,3.1 M89.1,1l-2.9,5.3l-6,1.2l4.2,4.5L83.6,18l5.5-2.6l5.5,2.6l-0.8-6.1L98,7.5l-6-1.2L89.1,1L89.1,1z
			 M69,1l-2.9,5.3l-6,1.2l4.2,4.5L63.5,18l5.5-2.6l5.5,2.6l-0.8-6.1L78,7.5l-6-1.2L69,1L69,1z M49,1l-2.9,5.3l-6,1.2l4.2,4.5
			L43.5,18l5.5-2.6l5.5,2.6l-0.8-6.1l4.2-4.5l-6-1.2L49,1L49,1z M29,1L26,6.3l-6,1.2l4.2,4.5L23.4,18l5.5-2.6l5.5,2.6l-0.8-6.1
			l4.2-4.5l-6-1.2L29,1L29,1z M8.9,1L6,6.3L0,7.5l4.2,4.5L3.4,18l5.5-2.6l5.5,2.6l-0.8-6.1l4.2-4.5l-6-1.2L8.9,1L8.9,1z"/>
	</g>
</g>
</svg>
